<svg aria-hidden="true" style="position: absolute; width: 0; height: 0; overflow: hidden;" version="1.1" xmlns="http://www.w3.org/2000/svg" xmlns:xlink="http://www.w3.org/1999/xlink">
<defs>
<symbol id="icon-down" viewBox="0 0 26 32">
<path d="M21.712 13.2c-0.156-0.156-0.408-0.156-0.564 0l-7.948 7.944v-17.656c0-0.22-0.18-0.4-0.4-0.4s-0.4 0.18-0.4 0.4v17.656l-7.948-7.944c-0.156-0.156-0.408-0.156-0.564 0s-0.156 0.408 0 0.564l8.628 8.628c0.036 0.036 0.080 0.068 0.132 0.088 0.048 0.020 0.1 0.032 0.152 0.032s0.104-0.012 0.152-0.032c0.048-0.020 0.092-0.048 0.132-0.088l8.628-8.628c0.156-0.156 0.156-0.408 0-0.564z"></path>
</symbol>
<symbol id="icon-back" viewBox="0 0 26 32">
<path d="M22.112 12.4h-17.656l7.944-7.948c0.156-0.156 0.156-0.408 0-0.564s-0.408-0.156-0.564 0l-8.628 8.628c-0.036 0.036-0.068 0.080-0.088 0.132-0.040 0.096-0.040 0.208 0 0.304 0.020 0.048 0.048 0.092 0.088 0.132l8.628 8.628c0.080 0.080 0.18 0.116 0.284 0.116s0.204-0.040 0.284-0.116c0.156-0.156 0.156-0.408 0-0.564l-7.948-7.948h17.656c0.22 0 0.4-0.18 0.4-0.4s-0.18-0.4-0.4-0.4z"></path>
</symbol>
<symbol id="icon-heart" viewBox="0 0 26 32">
<path d="M12.816 21.052c-0.271 0-0.526-0.104-0.718-0.297l-7.373-7.373c0 0 0 0 0 0-0.489-0.489-0.869-1.061-1.129-1.696-0.25-0.614-0.375-1.264-0.375-1.93s0.125-1.316 0.375-1.93c0.26-0.635 0.635-1.207 1.129-1.696 0.489-0.489 1.061-0.869 1.696-1.129 0.614-0.25 1.264-0.375 1.93-0.375s1.316 0.125 1.93 0.375c0.635 0.26 1.207 0.635 1.696 1.129l0.77 0.77c0.021 0.021 0.047 0.026 0.062 0.026s0.042-0.005 0.062-0.026l0.77-0.77c0.489-0.489 1.061-0.869 1.696-1.129 0.614-0.25 1.264-0.375 1.93-0.375s1.316 0.125 1.93 0.375c0.635 0.26 1.207 0.635 1.696 1.129 0.489 0.489 0.869 1.061 1.129 1.696 0.25 0.614 0.375 1.264 0.375 1.93s-0.125 1.316-0.375 1.93c-0.26 0.635-0.635 1.207-1.129 1.696l-7.368 7.373c-0.193 0.193-0.442 0.297-0.713 0.297v0zM5.151 12.961l7.373 7.373c0.078 0.078 0.182 0.12 0.291 0.12s0.213-0.042 0.291-0.12l7.373-7.373c0.853-0.853 1.327-1.993 1.327-3.205s-0.474-2.347-1.327-3.205c-1.769-1.764-4.641-1.764-6.41 0l-0.77 0.77c-0.13 0.13-0.302 0.203-0.484 0.203s-0.359-0.073-0.484-0.203l-0.77-0.77c-0.859-0.853-1.993-1.327-3.205-1.327s-2.347 0.473-3.205 1.327c-1.769 1.769-1.769 4.641 0 6.41v0z"></path>
</symbol>
<symbol id="icon-burger" viewBox="0 0 26 32">
<path d="M21.16 12.4h-16.72c-0.22 0-0.4 0.18-0.4 0.4s0.18 0.4 0.4 0.4h16.72c0.22 0 0.4-0.18 0.4-0.4s-0.18-0.4-0.4-0.4z"></path>
<path d="M21.16 20.4h-16.72c-0.22 0-0.4 0.18-0.4 0.4s0.18 0.4 0.4 0.4h16.72c0.22 0 0.4-0.18 0.4-0.4s-0.18-0.4-0.4-0.4z"></path>
<path d="M4.44 5.2h16.72c0.22 0 0.4-0.18 0.4-0.4s-0.18-0.4-0.4-0.4h-16.72c-0.22 0-0.4 0.18-0.4 0.4s0.18 0.4 0.4 0.4z"></path>
</symbol>
<symbol id="icon-right" viewBox="0 0 26 32">
<path d="M22.48 12.952c0.040-0.096 0.040-0.208 0-0.304-0.020-0.048-0.048-0.092-0.088-0.132l-8.628-8.628c-0.156-0.156-0.408-0.156-0.564 0s-0.156 0.408 0 0.564l7.944 7.948h-17.656c-0.22 0-0.4 0.18-0.4 0.4s0.18 0.4 0.4 0.4h17.656l-7.944 7.948c-0.156 0.156-0.156 0.408 0 0.564 0.080 0.080 0.18 0.116 0.284 0.116s0.204-0.040 0.284-0.116l8.628-8.628c0.036-0.036 0.064-0.084 0.084-0.132z"></path>
</symbol>
<symbol id="icon-up" viewBox="0 0 26 32">
<path d="M21.712 12.4c-0.156 0.156-0.408 0.156-0.564 0l-7.948-7.944v17.656c0 0.22-0.18 0.4-0.4 0.4s-0.4-0.18-0.4-0.4v-17.656l-7.948 7.944c-0.156 0.156-0.408 0.156-0.564 0s-0.156-0.408 0-0.564l8.628-8.628c0.036-0.036 0.080-0.068 0.132-0.088 0.048-0.020 0.1-0.032 0.152-0.032s0.104 0.012 0.152 0.032c0.048 0.020 0.092 0.048 0.132 0.088l8.628 8.628c0.156 0.156 0.156 0.408 0 0.564z"></path>
</symbol>
<symbol id="icon-close" viewBox="0 0 26 32">
<path d="M13.364 12.8l6.628-6.628c0.156-0.156 0.156-0.408 0-0.564s-0.408-0.156-0.564 0l-6.628 6.628-6.628-6.628c-0.156-0.156-0.408-0.156-0.564 0s-0.156 0.408 0 0.564l6.628 6.628-6.628 6.628c-0.156 0.156-0.156 0.408 0 0.564 0.080 0.080 0.18 0.116 0.284 0.116s0.204-0.040 0.284-0.116l6.624-6.628 6.628 6.628c0.080 0.080 0.18 0.116 0.284 0.116s0.204-0.040 0.284-0.116c0.156-0.156 0.156-0.408 0-0.564l-6.632-6.628z"></path>
</symbol>
</defs>
</svg>
